<mxfile host="app.diagrams.net" modified="2021-02-26T23:51:41.147Z" agent="5.0 (Windows)" etag="roxY1epHG9P0WDjzD3MY" version="14.4.3" type="github">
  <diagram id="R2lEEEUBdFMjLlhIrx00" name="Page-1">
    <mxGraphModel dx="1108" dy="513" grid="1" gridSize="10" guides="1" tooltips="1" connect="1" arrows="1" fold="1" page="1" pageScale="1" pageWidth="850" pageHeight="1100" math="0" shadow="0" extFonts="Permanent Marker^https://fonts.googleapis.com/css?family=Permanent+Marker">
      <root>
        <mxCell id="0" />
        <mxCell id="1" parent="0" />
        <mxCell id="B15ubSbXxVU3i6Eq9neQ-1" value="Equipamentos" style="rounded=0;whiteSpace=wrap;html=1;" vertex="1" parent="1">
          <mxGeometry x="80" y="160" width="120" height="60" as="geometry" />
        </mxCell>
        <mxCell id="B15ubSbXxVU3i6Eq9neQ-2" value="Unidades" style="rounded=0;whiteSpace=wrap;html=1;" vertex="1" parent="1">
          <mxGeometry x="310" y="40" width="120" height="60" as="geometry" />
        </mxCell>
        <mxCell id="B15ubSbXxVU3i6Eq9neQ-3" value="Material" style="rounded=0;whiteSpace=wrap;html=1;" vertex="1" parent="1">
          <mxGeometry x="210" y="770" width="120" height="60" as="geometry" />
        </mxCell>
        <mxCell id="B15ubSbXxVU3i6Eq9neQ-86" style="edgeStyle=orthogonalEdgeStyle;rounded=0;orthogonalLoop=1;jettySize=auto;html=1;exitX=0.25;exitY=0;exitDx=0;exitDy=0;entryX=0.5;entryY=1;entryDx=0;entryDy=0;" edge="1" parent="1" source="B15ubSbXxVU3i6Eq9neQ-6" target="B15ubSbXxVU3i6Eq9neQ-22">
          <mxGeometry relative="1" as="geometry" />
        </mxCell>
        <mxCell id="B15ubSbXxVU3i6Eq9neQ-6" value="Salas" style="rounded=0;whiteSpace=wrap;html=1;" vertex="1" parent="1">
          <mxGeometry x="710" y="270" width="120" height="60" as="geometry" />
        </mxCell>
        <mxCell id="B15ubSbXxVU3i6Eq9neQ-7" value="Cursos" style="rounded=0;whiteSpace=wrap;html=1;" vertex="1" parent="1">
          <mxGeometry x="40" y="640" width="120" height="60" as="geometry" />
        </mxCell>
        <mxCell id="B15ubSbXxVU3i6Eq9neQ-9" value="Calendário" style="rounded=0;whiteSpace=wrap;html=1;" vertex="1" parent="1">
          <mxGeometry x="610" y="405" width="80" height="50" as="geometry" />
        </mxCell>
        <mxCell id="B15ubSbXxVU3i6Eq9neQ-43" style="edgeStyle=orthogonalEdgeStyle;rounded=0;orthogonalLoop=1;jettySize=auto;html=1;exitX=0;exitY=0.5;exitDx=0;exitDy=0;" edge="1" parent="1" source="B15ubSbXxVU3i6Eq9neQ-10" target="B15ubSbXxVU3i6Eq9neQ-41">
          <mxGeometry relative="1" as="geometry" />
        </mxCell>
        <mxCell id="B15ubSbXxVU3i6Eq9neQ-10" value="Disciplinas" style="rounded=0;whiteSpace=wrap;html=1;" vertex="1" parent="1">
          <mxGeometry x="60" y="380" width="80" height="60" as="geometry" />
        </mxCell>
        <mxCell id="B15ubSbXxVU3i6Eq9neQ-39" style="edgeStyle=orthogonalEdgeStyle;rounded=0;orthogonalLoop=1;jettySize=auto;html=1;exitX=0;exitY=0.5;exitDx=0;exitDy=0;entryX=1;entryY=0.5;entryDx=0;entryDy=0;" edge="1" parent="1" source="B15ubSbXxVU3i6Eq9neQ-11" target="B15ubSbXxVU3i6Eq9neQ-37">
          <mxGeometry relative="1" as="geometry" />
        </mxCell>
        <mxCell id="B15ubSbXxVU3i6Eq9neQ-48" style="edgeStyle=orthogonalEdgeStyle;rounded=0;orthogonalLoop=1;jettySize=auto;html=1;exitX=0.5;exitY=1;exitDx=0;exitDy=0;entryX=1;entryY=0.5;entryDx=0;entryDy=0;" edge="1" parent="1" source="B15ubSbXxVU3i6Eq9neQ-11" target="B15ubSbXxVU3i6Eq9neQ-44">
          <mxGeometry relative="1" as="geometry" />
        </mxCell>
        <mxCell id="B15ubSbXxVU3i6Eq9neQ-50" style="edgeStyle=orthogonalEdgeStyle;rounded=0;orthogonalLoop=1;jettySize=auto;html=1;exitX=1;exitY=0.5;exitDx=0;exitDy=0;" edge="1" parent="1" source="B15ubSbXxVU3i6Eq9neQ-11" target="B15ubSbXxVU3i6Eq9neQ-49">
          <mxGeometry relative="1" as="geometry" />
        </mxCell>
        <mxCell id="B15ubSbXxVU3i6Eq9neQ-77" style="edgeStyle=orthogonalEdgeStyle;rounded=0;orthogonalLoop=1;jettySize=auto;html=1;exitX=1;exitY=0.25;exitDx=0;exitDy=0;entryX=0.5;entryY=1;entryDx=0;entryDy=0;" edge="1" parent="1" source="B15ubSbXxVU3i6Eq9neQ-11" target="B15ubSbXxVU3i6Eq9neQ-56">
          <mxGeometry relative="1" as="geometry" />
        </mxCell>
        <mxCell id="B15ubSbXxVU3i6Eq9neQ-79" style="edgeStyle=orthogonalEdgeStyle;rounded=0;orthogonalLoop=1;jettySize=auto;html=1;exitX=0;exitY=0.5;exitDx=0;exitDy=0;entryX=0.5;entryY=1;entryDx=0;entryDy=0;" edge="1" parent="1" source="B15ubSbXxVU3i6Eq9neQ-11" target="B15ubSbXxVU3i6Eq9neQ-62">
          <mxGeometry relative="1" as="geometry" />
        </mxCell>
        <mxCell id="B15ubSbXxVU3i6Eq9neQ-11" value="Turmas" style="rounded=0;whiteSpace=wrap;html=1;" vertex="1" parent="1">
          <mxGeometry x="360" y="500" width="120" height="60" as="geometry" />
        </mxCell>
        <mxCell id="B15ubSbXxVU3i6Eq9neQ-31" style="edgeStyle=orthogonalEdgeStyle;rounded=0;orthogonalLoop=1;jettySize=auto;html=1;exitX=1;exitY=0.5;exitDx=0;exitDy=0;entryX=0;entryY=0.5;entryDx=0;entryDy=0;" edge="1" parent="1" source="B15ubSbXxVU3i6Eq9neQ-12" target="B15ubSbXxVU3i6Eq9neQ-30">
          <mxGeometry relative="1" as="geometry" />
        </mxCell>
        <mxCell id="B15ubSbXxVU3i6Eq9neQ-34" style="edgeStyle=orthogonalEdgeStyle;rounded=0;orthogonalLoop=1;jettySize=auto;html=1;exitX=0;exitY=0.5;exitDx=0;exitDy=0;entryX=1;entryY=0.5;entryDx=0;entryDy=0;" edge="1" parent="1" source="B15ubSbXxVU3i6Eq9neQ-12" target="B15ubSbXxVU3i6Eq9neQ-33">
          <mxGeometry relative="1" as="geometry" />
        </mxCell>
        <mxCell id="B15ubSbXxVU3i6Eq9neQ-55" style="edgeStyle=orthogonalEdgeStyle;rounded=0;orthogonalLoop=1;jettySize=auto;html=1;exitX=0.5;exitY=0;exitDx=0;exitDy=0;entryX=1;entryY=0.5;entryDx=0;entryDy=0;" edge="1" parent="1" source="B15ubSbXxVU3i6Eq9neQ-12" target="B15ubSbXxVU3i6Eq9neQ-53">
          <mxGeometry relative="1" as="geometry" />
        </mxCell>
        <mxCell id="B15ubSbXxVU3i6Eq9neQ-75" style="edgeStyle=orthogonalEdgeStyle;rounded=0;orthogonalLoop=1;jettySize=auto;html=1;exitX=1;exitY=0;exitDx=0;exitDy=0;entryX=0.5;entryY=1;entryDx=0;entryDy=0;" edge="1" parent="1" source="B15ubSbXxVU3i6Eq9neQ-12" target="B15ubSbXxVU3i6Eq9neQ-68">
          <mxGeometry relative="1" as="geometry" />
        </mxCell>
        <mxCell id="B15ubSbXxVU3i6Eq9neQ-78" style="edgeStyle=orthogonalEdgeStyle;rounded=0;orthogonalLoop=1;jettySize=auto;html=1;exitX=1;exitY=0.75;exitDx=0;exitDy=0;entryX=0.5;entryY=0;entryDx=0;entryDy=0;" edge="1" parent="1" source="B15ubSbXxVU3i6Eq9neQ-12" target="B15ubSbXxVU3i6Eq9neQ-56">
          <mxGeometry relative="1" as="geometry" />
        </mxCell>
        <mxCell id="B15ubSbXxVU3i6Eq9neQ-82" style="edgeStyle=orthogonalEdgeStyle;rounded=0;orthogonalLoop=1;jettySize=auto;html=1;exitX=0;exitY=0.75;exitDx=0;exitDy=0;entryX=0.5;entryY=0;entryDx=0;entryDy=0;" edge="1" parent="1" source="B15ubSbXxVU3i6Eq9neQ-12" target="B15ubSbXxVU3i6Eq9neQ-62">
          <mxGeometry relative="1" as="geometry" />
        </mxCell>
        <mxCell id="B15ubSbXxVU3i6Eq9neQ-85" style="edgeStyle=orthogonalEdgeStyle;rounded=0;orthogonalLoop=1;jettySize=auto;html=1;exitX=0.75;exitY=1;exitDx=0;exitDy=0;entryX=0.5;entryY=0;entryDx=0;entryDy=0;" edge="1" parent="1" source="B15ubSbXxVU3i6Eq9neQ-12" target="B15ubSbXxVU3i6Eq9neQ-36">
          <mxGeometry relative="1" as="geometry" />
        </mxCell>
        <mxCell id="B15ubSbXxVU3i6Eq9neQ-12" value="Funcionários" style="rounded=0;whiteSpace=wrap;html=1;" vertex="1" parent="1">
          <mxGeometry x="340" y="260" width="110" height="60" as="geometry" />
        </mxCell>
        <mxCell id="B15ubSbXxVU3i6Eq9neQ-20" style="edgeStyle=orthogonalEdgeStyle;rounded=0;orthogonalLoop=1;jettySize=auto;html=1;exitX=0.5;exitY=0;exitDx=0;exitDy=0;entryX=1;entryY=0.5;entryDx=0;entryDy=0;" edge="1" parent="1" source="B15ubSbXxVU3i6Eq9neQ-13" target="B15ubSbXxVU3i6Eq9neQ-16">
          <mxGeometry relative="1" as="geometry" />
        </mxCell>
        <mxCell id="B15ubSbXxVU3i6Eq9neQ-13" value="Bloco" style="rounded=0;whiteSpace=wrap;html=1;" vertex="1" parent="1">
          <mxGeometry x="680" y="30" width="120" height="60" as="geometry" />
        </mxCell>
        <mxCell id="B15ubSbXxVU3i6Eq9neQ-14" value="Período" style="rounded=0;whiteSpace=wrap;html=1;" vertex="1" parent="1">
          <mxGeometry x="700" y="500" width="120" height="60" as="geometry" />
        </mxCell>
        <mxCell id="B15ubSbXxVU3i6Eq9neQ-27" style="edgeStyle=orthogonalEdgeStyle;rounded=0;orthogonalLoop=1;jettySize=auto;html=1;exitX=1;exitY=0.5;exitDx=0;exitDy=0;entryX=0;entryY=0.5;entryDx=0;entryDy=0;" edge="1" parent="1" source="B15ubSbXxVU3i6Eq9neQ-15" target="B15ubSbXxVU3i6Eq9neQ-26">
          <mxGeometry relative="1" as="geometry" />
        </mxCell>
        <mxCell id="B15ubSbXxVU3i6Eq9neQ-15" value="Endereço" style="rounded=0;whiteSpace=wrap;html=1;" vertex="1" parent="1">
          <mxGeometry x="10" y="40" width="120" height="60" as="geometry" />
        </mxCell>
        <mxCell id="B15ubSbXxVU3i6Eq9neQ-19" style="edgeStyle=orthogonalEdgeStyle;rounded=0;orthogonalLoop=1;jettySize=auto;html=1;entryX=1;entryY=0.5;entryDx=0;entryDy=0;" edge="1" parent="1" source="B15ubSbXxVU3i6Eq9neQ-16" target="B15ubSbXxVU3i6Eq9neQ-2">
          <mxGeometry relative="1" as="geometry">
            <mxPoint x="470" y="70" as="targetPoint" />
          </mxGeometry>
        </mxCell>
        <mxCell id="B15ubSbXxVU3i6Eq9neQ-16" value="Constitui" style="rhombus;whiteSpace=wrap;html=1;" vertex="1" parent="1">
          <mxGeometry x="490" y="30" width="80" height="80" as="geometry" />
        </mxCell>
        <mxCell id="B15ubSbXxVU3i6Eq9neQ-67" style="edgeStyle=orthogonalEdgeStyle;rounded=0;orthogonalLoop=1;jettySize=auto;html=1;exitX=0.5;exitY=0;exitDx=0;exitDy=0;entryX=0.5;entryY=1;entryDx=0;entryDy=0;" edge="1" parent="1" source="B15ubSbXxVU3i6Eq9neQ-22" target="B15ubSbXxVU3i6Eq9neQ-13">
          <mxGeometry relative="1" as="geometry" />
        </mxCell>
        <mxCell id="B15ubSbXxVU3i6Eq9neQ-22" value="Constitui" style="rhombus;whiteSpace=wrap;html=1;" vertex="1" parent="1">
          <mxGeometry x="700" y="130" width="80" height="80" as="geometry" />
        </mxCell>
        <mxCell id="B15ubSbXxVU3i6Eq9neQ-28" style="edgeStyle=orthogonalEdgeStyle;rounded=0;orthogonalLoop=1;jettySize=auto;html=1;exitX=1;exitY=0.5;exitDx=0;exitDy=0;entryX=0;entryY=0.5;entryDx=0;entryDy=0;" edge="1" parent="1" source="B15ubSbXxVU3i6Eq9neQ-26" target="B15ubSbXxVU3i6Eq9neQ-2">
          <mxGeometry relative="1" as="geometry" />
        </mxCell>
        <mxCell id="B15ubSbXxVU3i6Eq9neQ-26" value="Pertence" style="rhombus;whiteSpace=wrap;html=1;" vertex="1" parent="1">
          <mxGeometry x="190" y="30" width="80" height="80" as="geometry" />
        </mxCell>
        <mxCell id="B15ubSbXxVU3i6Eq9neQ-32" style="edgeStyle=orthogonalEdgeStyle;rounded=0;orthogonalLoop=1;jettySize=auto;html=1;exitX=0.5;exitY=0;exitDx=0;exitDy=0;" edge="1" parent="1" source="B15ubSbXxVU3i6Eq9neQ-30" target="B15ubSbXxVU3i6Eq9neQ-6">
          <mxGeometry relative="1" as="geometry" />
        </mxCell>
        <mxCell id="B15ubSbXxVU3i6Eq9neQ-30" value="Trabalham" style="rhombus;whiteSpace=wrap;html=1;" vertex="1" parent="1">
          <mxGeometry x="730" y="350" width="80" height="80" as="geometry" />
        </mxCell>
        <mxCell id="B15ubSbXxVU3i6Eq9neQ-35" style="edgeStyle=orthogonalEdgeStyle;rounded=0;orthogonalLoop=1;jettySize=auto;html=1;exitX=0.5;exitY=1;exitDx=0;exitDy=0;entryX=0.5;entryY=0;entryDx=0;entryDy=0;" edge="1" parent="1" source="B15ubSbXxVU3i6Eq9neQ-33" target="B15ubSbXxVU3i6Eq9neQ-10">
          <mxGeometry relative="1" as="geometry" />
        </mxCell>
        <mxCell id="B15ubSbXxVU3i6Eq9neQ-33" value="Ministram" style="rhombus;whiteSpace=wrap;html=1;" vertex="1" parent="1">
          <mxGeometry x="60" y="250" width="80" height="80" as="geometry" />
        </mxCell>
        <mxCell id="B15ubSbXxVU3i6Eq9neQ-42" style="edgeStyle=orthogonalEdgeStyle;rounded=0;orthogonalLoop=1;jettySize=auto;html=1;exitX=0.5;exitY=1;exitDx=0;exitDy=0;entryX=0.5;entryY=0;entryDx=0;entryDy=0;" edge="1" parent="1" source="B15ubSbXxVU3i6Eq9neQ-36" target="B15ubSbXxVU3i6Eq9neQ-11">
          <mxGeometry relative="1" as="geometry" />
        </mxCell>
        <mxCell id="B15ubSbXxVU3i6Eq9neQ-36" value="Ensinam" style="rhombus;whiteSpace=wrap;html=1;" vertex="1" parent="1">
          <mxGeometry x="380" y="360" width="80" height="80" as="geometry" />
        </mxCell>
        <mxCell id="B15ubSbXxVU3i6Eq9neQ-40" style="edgeStyle=orthogonalEdgeStyle;rounded=0;orthogonalLoop=1;jettySize=auto;html=1;exitX=0.5;exitY=0;exitDx=0;exitDy=0;entryX=0.5;entryY=1;entryDx=0;entryDy=0;" edge="1" parent="1" source="B15ubSbXxVU3i6Eq9neQ-37" target="B15ubSbXxVU3i6Eq9neQ-10">
          <mxGeometry relative="1" as="geometry" />
        </mxCell>
        <mxCell id="B15ubSbXxVU3i6Eq9neQ-37" value="Atendem" style="rhombus;whiteSpace=wrap;html=1;" vertex="1" parent="1">
          <mxGeometry x="140" y="490" width="80" height="80" as="geometry" />
        </mxCell>
        <mxCell id="B15ubSbXxVU3i6Eq9neQ-46" style="edgeStyle=orthogonalEdgeStyle;rounded=0;orthogonalLoop=1;jettySize=auto;html=1;exitX=0.5;exitY=1;exitDx=0;exitDy=0;entryX=0.5;entryY=0;entryDx=0;entryDy=0;" edge="1" parent="1" source="B15ubSbXxVU3i6Eq9neQ-41" target="B15ubSbXxVU3i6Eq9neQ-7">
          <mxGeometry relative="1" as="geometry" />
        </mxCell>
        <mxCell id="B15ubSbXxVU3i6Eq9neQ-41" value="Integram" style="rhombus;whiteSpace=wrap;html=1;" vertex="1" parent="1">
          <mxGeometry x="60" y="510" width="80" height="80" as="geometry" />
        </mxCell>
        <mxCell id="B15ubSbXxVU3i6Eq9neQ-45" style="edgeStyle=orthogonalEdgeStyle;rounded=0;orthogonalLoop=1;jettySize=auto;html=1;exitX=0;exitY=0.5;exitDx=0;exitDy=0;entryX=1;entryY=0.5;entryDx=0;entryDy=0;" edge="1" parent="1" source="B15ubSbXxVU3i6Eq9neQ-44" target="B15ubSbXxVU3i6Eq9neQ-7">
          <mxGeometry relative="1" as="geometry" />
        </mxCell>
        <mxCell id="B15ubSbXxVU3i6Eq9neQ-52" style="edgeStyle=orthogonalEdgeStyle;rounded=0;orthogonalLoop=1;jettySize=auto;html=1;exitX=0.5;exitY=1;exitDx=0;exitDy=0;entryX=0.5;entryY=0;entryDx=0;entryDy=0;" edge="1" parent="1" source="B15ubSbXxVU3i6Eq9neQ-44" target="B15ubSbXxVU3i6Eq9neQ-3">
          <mxGeometry relative="1" as="geometry" />
        </mxCell>
        <mxCell id="B15ubSbXxVU3i6Eq9neQ-44" value="Possuem" style="rhombus;whiteSpace=wrap;html=1;" vertex="1" parent="1">
          <mxGeometry x="230" y="630" width="80" height="80" as="geometry" />
        </mxCell>
        <mxCell id="B15ubSbXxVU3i6Eq9neQ-51" style="edgeStyle=orthogonalEdgeStyle;rounded=0;orthogonalLoop=1;jettySize=auto;html=1;exitX=1;exitY=0.5;exitDx=0;exitDy=0;entryX=0;entryY=0.5;entryDx=0;entryDy=0;" edge="1" parent="1" source="B15ubSbXxVU3i6Eq9neQ-49" target="B15ubSbXxVU3i6Eq9neQ-14">
          <mxGeometry relative="1" as="geometry" />
        </mxCell>
        <mxCell id="B15ubSbXxVU3i6Eq9neQ-49" value="Possuem" style="rhombus;whiteSpace=wrap;html=1;" vertex="1" parent="1">
          <mxGeometry x="560" y="490" width="80" height="80" as="geometry" />
        </mxCell>
        <mxCell id="B15ubSbXxVU3i6Eq9neQ-54" style="edgeStyle=orthogonalEdgeStyle;rounded=0;orthogonalLoop=1;jettySize=auto;html=1;exitX=0;exitY=0.5;exitDx=0;exitDy=0;entryX=1;entryY=0.5;entryDx=0;entryDy=0;" edge="1" parent="1" source="B15ubSbXxVU3i6Eq9neQ-53" target="B15ubSbXxVU3i6Eq9neQ-1">
          <mxGeometry relative="1" as="geometry" />
        </mxCell>
        <mxCell id="B15ubSbXxVU3i6Eq9neQ-53" value="Utilizam" style="rhombus;whiteSpace=wrap;html=1;" vertex="1" parent="1">
          <mxGeometry x="280" y="150" width="80" height="80" as="geometry" />
        </mxCell>
        <mxCell id="B15ubSbXxVU3i6Eq9neQ-58" style="edgeStyle=orthogonalEdgeStyle;rounded=0;orthogonalLoop=1;jettySize=auto;html=1;exitX=1;exitY=0.5;exitDx=0;exitDy=0;entryX=0;entryY=0.5;entryDx=0;entryDy=0;" edge="1" parent="1" source="B15ubSbXxVU3i6Eq9neQ-56" target="B15ubSbXxVU3i6Eq9neQ-9">
          <mxGeometry relative="1" as="geometry" />
        </mxCell>
        <mxCell id="B15ubSbXxVU3i6Eq9neQ-56" value="Utilizam" style="rhombus;whiteSpace=wrap;html=1;" vertex="1" parent="1">
          <mxGeometry x="490" y="390" width="80" height="80" as="geometry" />
        </mxCell>
        <mxCell id="B15ubSbXxVU3i6Eq9neQ-60" value="Eventos" style="rounded=0;whiteSpace=wrap;html=1;" vertex="1" parent="1">
          <mxGeometry x="180" y="320" width="70" height="60" as="geometry" />
        </mxCell>
        <mxCell id="B15ubSbXxVU3i6Eq9neQ-65" style="edgeStyle=orthogonalEdgeStyle;rounded=0;orthogonalLoop=1;jettySize=auto;html=1;exitX=0;exitY=0.5;exitDx=0;exitDy=0;entryX=0.5;entryY=1;entryDx=0;entryDy=0;" edge="1" parent="1" source="B15ubSbXxVU3i6Eq9neQ-62" target="B15ubSbXxVU3i6Eq9neQ-60">
          <mxGeometry relative="1" as="geometry" />
        </mxCell>
        <mxCell id="B15ubSbXxVU3i6Eq9neQ-62" value="Participam" style="rhombus;whiteSpace=wrap;html=1;" vertex="1" parent="1">
          <mxGeometry x="280" y="360" width="80" height="80" as="geometry" />
        </mxCell>
        <mxCell id="B15ubSbXxVU3i6Eq9neQ-74" style="edgeStyle=orthogonalEdgeStyle;rounded=0;orthogonalLoop=1;jettySize=auto;html=1;exitX=0.5;exitY=0;exitDx=0;exitDy=0;entryX=0;entryY=0.5;entryDx=0;entryDy=0;" edge="1" parent="1" source="B15ubSbXxVU3i6Eq9neQ-68" target="B15ubSbXxVU3i6Eq9neQ-69">
          <mxGeometry relative="1" as="geometry" />
        </mxCell>
        <mxCell id="B15ubSbXxVU3i6Eq9neQ-68" value="Possuem" style="rhombus;whiteSpace=wrap;html=1;" vertex="1" parent="1">
          <mxGeometry x="430" y="170" width="80" height="60" as="geometry" />
        </mxCell>
        <mxCell id="B15ubSbXxVU3i6Eq9neQ-69" value="Cargos" style="rounded=0;whiteSpace=wrap;html=1;" vertex="1" parent="1">
          <mxGeometry x="540" y="110" width="120" height="60" as="geometry" />
        </mxCell>
      </root>
    </mxGraphModel>
  </diagram>
</mxfile>
